grf
version=1
nRows=6
nColumns=37
inDegrees=no
endheader
time	ground_force_1_vx	ground_force_1_vy	ground_force_1_vz	ground_force_1_px	ground_force_1_py	ground_force_1_pz	ground_moment_1_mx	ground_moment_1_my	ground_moment_1_mz	ground_force_2_vx	ground_force_2_vy	ground_force_2_vz	ground_force_2_px	ground_force_2_py	ground_force_2_pz	ground_moment_2_mx	ground_moment_2_my	ground_moment_2_mz	ground_force_3_vx	ground_force_3_vy	ground_force_3_vz	ground_force_3_px	ground_force_3_py	ground_force_3_pz	ground_moment_3_mx	ground_moment_3_my	ground_moment_3_mz	ground_force_4_vx	ground_force_4_vy	ground_force_4_vz	ground_force_4_px	ground_force_4_py	ground_force_4_pz	ground_moment_4_mx	ground_moment_4_my	ground_moment_4_mz
      4.16000000	      0.00000000	     -0.00000000	      0.00000000	      0.00000000	      0.00000000	      0.00000000	      0.00000000	      0.00000000	      0.00000000	      0.05665845	     10.36080837	   -403.46035767	   -315.02928137	  -1084.34010822	      0.00000000	      0.00000000	      0.00000000	   9393.87970364	      3.81126295	     -6.96098456	   -406.74865723	   -299.06892204	   -755.82829918	      0.00000000	     -0.00000000	     -0.00000000	  -9878.29248785	      0.00000000	     -0.00000000	      0.00000000	      0.00000000	      0.00000000	      0.00000000	      0.00000000	      0.00000000	      0.00000000
      4.17000000	      0.00000000	     -0.00000000	      0.00000000	      0.00000000	      0.00000000	      0.00000000	      0.00000000	      0.00000000	      0.00000000	      1.17098927	     10.95554447	   -411.11630249	   -315.91650259	  -1084.25469439	      0.00000000	      0.00000000	      0.00000000	   9153.29820330	      3.90327390	     -7.23896013	   -413.40902710	   -299.52170722	   -755.44010182	      0.00000000	      0.00000000	     -0.00000000	  -9759.57630169	      0.00000000	     -0.00000000	      0.00000000	      0.00000000	      0.00000000	      0.00000000	      0.00000000	      0.00000000	      0.00000000
      4.18000000	      0.00000000	     -0.00000000	      0.00000000	      0.00000000	      0.00000000	      0.00000000	      0.00000000	      0.00000000	      0.00000000	      3.31623363	     10.36227322	   -420.29940796	   -317.63315147	  -1082.99471899	      0.00000000	     -0.00000000	      0.00000000	   9069.60777765	      4.42490895	     -7.33070031	   -422.15222168	   -300.40111682	   -756.91724503	      0.00000000	     -0.00000000	     -0.00000000	  -9817.54379281	      0.00000000	     -0.00000000	      0.00000000	      0.00000000	      0.00000000	      0.00000000	      0.00000000	      0.00000000	      0.00000000
      4.19000000	      0.00000000	     -0.00000000	      0.00000000	      0.00000000	      0.00000000	      0.00000000	      0.00000000	      0.00000000	      0.00000000	      7.57094431	     10.43223667	   -438.89230347	   -320.10192035	  -1083.88798796	      0.00000000	      0.00000000	      0.00000000	   9580.79747453	      5.59244331	     -7.22413732	   -436.45394897	   -301.30332566	   -757.60264832	      0.00000000	      0.00000000	     -0.00000000	 -10094.00757363	      0.00000000	     -0.00000000	      0.00000000	      0.00000000	      0.00000000	      0.00000000	      0.00000000	      0.00000000	      0.00000000
      4.20000000	      0.00000000	     -0.00000000	      0.00000000	      0.00000000	      0.00000000	      0.00000000	      0.00000000	      0.00000000	      0.00000000	     12.39615536	      9.79614067	   -461.15545654	   -321.00274248	  -1082.78138780	      0.00000000	      0.00000000	      0.00000000	   9302.75528918	      7.62155478	     -6.28214855	   -458.45098877	   -303.51080629	   -758.14689753	      0.00000000	      0.00000000	     -0.00000000	 -10289.61972557	      0.00000000	     -0.00000000	      0.00000000	      0.00000000	      0.00000000	      0.00000000	      0.00000000	      0.00000000	      0.00000000
      4.21000000	      0.00000000	     -0.00000000	      0.00000000	      0.00000000	      0.00000000	      0.00000000	      0.00000000	      0.00000000	      0.00000000	     20.41648865	      8.21270370	   -488.41430664	   -323.35312227	  -1082.04896916	      0.00000000	      0.00000000	      0.00000000	   9812.93585193	     11.52848199	     -5.13046318	   -487.97512817	   -305.32231859	   -757.11878382	      0.00000000	      0.00000000	     -0.00000000	 -10498.47694436	      0.00000000	     -0.00000000	      0.00000000	      0.00000000	      0.00000000	      0.00000000	      0.00000000	      0.00000000	      0.00000000
